<svg width="276" height="132" viewBox="0 0 276 132" fill="none" xmlns="http://www.w3.org/2000/svg">
<rect width="276" height="132" fill="#FCFCFC"/>
<rect y="117" width="276" height="15" fill="#F01B53"/>
<path d="M38.5609 94C36.6922 94 35.1322 93.3744 33.8809 92.1231C32.627 90.8692 32 89.3078 32 87.4391V35.5609C32 33.6922 32.627 32.1322 33.8809 30.8809C35.1322 29.627 36.6922 29 38.5609 29H90.4391C92.3078 29 93.8678 29.627 95.1191 30.8809C96.373 32.1322 97 33.6922 97 35.5609V87.4391C97 89.3078 96.3744 90.8678 95.1231 92.1191C93.8692 93.373 92.3078 94 90.4391 94H38.5609ZM38.5609 89.9375H50.9069V70.405H49.2656C48.2717 70.405 47.4497 70.08 46.7997 69.43C46.1497 68.7827 45.8247 67.9621 45.8247 66.9681V33.0625H38.565C37.8365 33.0625 37.2379 33.2968 36.7694 33.7653C36.3008 34.2339 36.0652 34.8324 36.0625 35.5609V87.4391C36.0625 88.1676 36.2968 88.7661 36.7653 89.2347C37.2339 89.7032 37.8324 89.9375 38.5609 89.9375ZM78.0931 89.9375H90.4391C91.1676 89.9375 91.7661 89.7032 92.2347 89.2347C92.7032 88.7661 92.9375 88.1676 92.9375 87.4391V35.5609C92.9375 34.8324 92.7032 34.2339 92.2347 33.7653C91.7661 33.2968 91.1676 33.0625 90.4391 33.0625H83.1713V66.9681C83.1713 67.9621 82.8463 68.7841 82.1963 69.4341C81.549 70.0841 80.7283 70.4091 79.7344 70.4091H78.0931V89.9375ZM54.4981 89.9375H74.5019V70.405H72.8606C71.864 70.405 71.042 70.08 70.3947 69.43C69.7447 68.7827 69.4197 67.9621 69.4197 66.9681V33.0625H59.5763V66.9681C59.5763 67.9621 59.2526 68.7841 58.6053 69.4341C57.9553 70.0841 57.1333 70.4091 56.1394 70.4091H54.4981V89.9375Z" fill="black"/>
</svg>
