<svg width="276" height="132" viewBox="0 0 276 132" fill="none" xmlns="http://www.w3.org/2000/svg">
<rect width="276" height="132" fill="#FCFCFC"/>
<rect y="117" width="276" height="15" fill="#F01B53"/>
<path d="M50.7802 70.056C54.5593 70.056 57.6229 66.9924 57.6229 63.2133C57.6229 59.4342 54.5593 56.3706 50.7802 56.3706C47.0011 56.3706 43.9375 59.4342 43.9375 63.2133C43.9375 66.9924 47.0011 70.056 50.7802 70.056Z" stroke="black" stroke-width="4" stroke-linecap="round" stroke-linejoin="round"/>
<path d="M71.3085 59.7921C75.0876 59.7921 78.1512 56.7285 78.1512 52.9494C78.1512 49.1703 75.0876 46.1067 71.3085 46.1067C67.5294 46.1067 64.4658 49.1703 64.4658 52.9494C64.4658 56.7285 67.5294 59.7921 71.3085 59.7921Z" stroke="black" stroke-width="4" stroke-linecap="round" stroke-linejoin="round"/>
<path d="M62.1329 34.5802C56.3357 32.2837 49.9778 31.8013 43.9005 33.1969C37.8231 34.5925 32.3127 37.8003 28.0981 42.3959C23.8836 46.9916 21.1637 52.7584 20.2981 58.9336C19.4326 65.1088 20.4622 71.4013 23.2508 76.9785C26.0395 82.5557 30.4556 87.1549 35.9151 90.1676C41.3746 93.1803 47.6201 94.4644 53.8253 93.8502C60.0305 93.236 65.903 90.7523 70.6659 86.7278C75.4288 82.7032 78.8576 77.3275 80.4987 71.3118M78.1517 52.9494V29L84.9944 35.8427" stroke="black" stroke-width="4" stroke-linecap="round" stroke-linejoin="round"/>
</svg>
