<svg width="381" height="159" viewBox="0 0 381 159" fill="none" xmlns="http://www.w3.org/2000/svg">
<path d="M143.475 119.75C138.375 119.75 133.9 118.625 130.05 116.375C126.25 114.125 123.3 110.975 121.2 106.925C119.1 102.825 118.05 98.025 118.05 92.525C118.05 88.375 118.65 84.65 119.85 81.35C121.05 78 122.75 75.15 124.95 72.8C127.2 70.4 129.875 68.575 132.975 67.325C136.125 66.025 139.625 65.375 143.475 65.375C148.625 65.375 153.1 66.5 156.9 68.75C160.7 70.95 163.65 74.075 165.75 78.125C167.85 82.175 168.9 86.95 168.9 92.45C168.9 96.6 168.3 100.35 167.1 103.7C165.9 107.05 164.175 109.925 161.925 112.325C159.725 114.725 157.05 116.575 153.9 117.875C150.8 119.125 147.325 119.75 143.475 119.75ZM143.475 111.5C146.725 111.5 149.475 110.75 151.725 109.25C154.025 107.75 155.775 105.575 156.975 102.725C158.225 99.875 158.85 96.475 158.85 92.525C158.85 86.525 157.5 81.875 154.8 78.575C152.15 75.275 148.375 73.625 143.475 73.625C140.275 73.625 137.525 74.375 135.225 75.875C132.925 77.325 131.15 79.475 129.9 82.325C128.7 85.125 128.1 88.525 128.1 92.525C128.1 98.475 129.45 103.125 132.15 106.475C134.85 109.825 138.625 111.5 143.475 111.5ZM183.162 119.6C181.712 119.6 180.587 119.2 179.787 118.4C179.037 117.6 178.662 116.45 178.662 114.95V70.325C178.662 68.775 179.037 67.6 179.787 66.8C180.587 65.95 181.612 65.525 182.862 65.525C184.012 65.525 184.862 65.75 185.412 66.2C186.012 66.6 186.712 67.3 187.512 68.3L216.237 105.575H214.287V70.1C214.287 68.65 214.662 67.525 215.412 66.725C216.212 65.925 217.337 65.525 218.787 65.525C220.237 65.525 221.337 65.925 222.087 66.725C222.837 67.525 223.212 68.65 223.212 70.1V115.1C223.212 116.5 222.862 117.6 222.162 118.4C221.462 119.2 220.512 119.6 219.312 119.6C218.162 119.6 217.237 119.375 216.537 118.925C215.887 118.475 215.162 117.75 214.362 116.75L185.712 79.475H187.587V114.95C187.587 116.45 187.212 117.6 186.462 118.4C185.712 119.2 184.612 119.6 183.162 119.6ZM256.74 119.75C253.09 119.75 249.865 119.275 247.065 118.325C244.315 117.375 241.99 115.975 240.09 114.125C238.19 112.225 236.765 109.875 235.815 107.075C234.865 104.275 234.39 101.025 234.39 97.325V70.4C234.39 68.75 234.79 67.525 235.59 66.725C236.44 65.925 237.64 65.525 239.19 65.525C240.74 65.525 241.915 65.925 242.715 66.725C243.565 67.525 243.99 68.75 243.99 70.4V97.25C243.99 102 245.065 105.575 247.215 107.975C249.415 110.325 252.59 111.5 256.74 111.5C260.89 111.5 264.04 110.325 266.19 107.975C268.34 105.575 269.415 102 269.415 97.25V70.4C269.415 68.75 269.815 67.525 270.615 66.725C271.465 65.925 272.665 65.525 274.215 65.525C275.715 65.525 276.865 65.925 277.665 66.725C278.515 67.525 278.94 68.75 278.94 70.4V97.325C278.94 102.225 278.09 106.35 276.39 109.7C274.74 113.05 272.265 115.575 268.965 117.275C265.665 118.925 261.59 119.75 256.74 119.75ZM291.35 119.6C290.1 119.6 289.075 119.275 288.275 118.625C287.475 117.925 287 117.075 286.85 116.075C286.75 115.025 287.1 113.975 287.9 112.925L305.075 90.05V94.175L288.725 72.275C287.925 71.175 287.575 70.125 287.675 69.125C287.775 68.075 288.225 67.225 289.025 66.575C289.825 65.875 290.825 65.525 292.025 65.525C293.025 65.525 293.9 65.775 294.65 66.275C295.45 66.725 296.25 67.5 297.05 68.6L310.55 87.2H307.475L320.9 68.6C321.7 67.5 322.475 66.725 323.225 66.275C324.025 65.775 324.95 65.525 326 65.525C327.25 65.525 328.275 65.85 329.075 66.5C329.875 67.15 330.325 68 330.425 69.05C330.525 70.05 330.15 71.125 329.3 72.275L312.95 94.175V90.05L330.05 112.925C330.85 113.975 331.2 115.025 331.1 116.075C331 117.075 330.55 117.925 329.75 118.625C328.95 119.275 327.9 119.6 326.6 119.6C325.65 119.6 324.775 119.35 323.975 118.85C323.225 118.35 322.425 117.55 321.575 116.45L307.325 96.95H310.625L296.45 116.45C295.65 117.55 294.85 118.35 294.05 118.85C293.25 119.35 292.35 119.6 291.35 119.6Z" fill="#F01B53"/>
<path d="M74.6669 54.3752C75.0232 54.2251 75.7922 54 76.3549 53.85C76.9176 53.7187 78.1555 53.5874 79.0745 53.5874C80.0311 53.5874 81.494 53.7187 82.4506 53.925C83.3884 54.1126 84.8514 54.544 85.7329 54.9003C86.6144 55.2567 87.9836 55.9131 88.8088 56.382C89.6154 56.8509 90.9658 57.77 91.791 58.4452C92.6351 59.1204 93.7604 60.2082 94.3231 60.8835C94.867 61.5587 95.5985 62.609 95.9549 63.2279C96.2925 63.8469 96.7051 64.8222 96.8739 65.3849C97.0427 65.9476 97.174 66.9604 97.174 67.6356C97.174 68.3108 97.0802 69.1736 96.9864 69.5675C96.8739 69.9426 96.5175 70.6178 96.1987 71.0492C95.8611 71.4806 95.2046 72.1183 94.7357 72.4746C94.2668 72.8122 93.3478 73.2624 92.6726 73.4687C91.9974 73.675 90.7782 73.8813 89.953 73.9376C88.9401 74.0126 87.8711 73.9563 86.6707 73.75C85.6954 73.5625 84.2699 73.2249 83.5384 72.9623C82.7882 72.7184 81.7566 72.3058 81.2315 72.0432C80.725 71.7807 80.2937 71.6306 80.2937 71.7244C80.3124 71.7994 80.8376 72.3996 81.494 73.0748C82.1505 73.75 83.4822 75.213 84.4575 76.3571C85.4328 77.5012 87.1021 79.5268 88.1899 80.8585C89.2778 82.1902 91.5097 85.0223 93.1602 87.1418C94.792 89.2612 96.9114 92.1308 97.8492 93.5188C98.787 94.9067 100.025 96.9323 100.588 98.0202C101.169 99.108 102.051 100.965 102.538 102.146C103.007 103.328 103.645 105.241 103.926 106.367C104.226 107.492 104.564 109.311 104.676 110.399C104.808 111.543 104.864 113.006 104.789 113.869C104.714 114.694 104.526 115.951 104.358 116.682C104.189 117.414 103.851 118.483 103.607 119.083C103.382 119.665 102.838 120.677 102.444 121.334C102.051 121.972 101.056 123.116 100.25 123.885C99.1621 124.879 98.3181 125.479 97.0802 126.079C96.1424 126.529 94.717 127.092 93.8917 127.317C92.6726 127.636 91.8286 127.711 89.3903 127.73C86.8957 127.748 86.0517 127.673 84.42 127.317C83.3321 127.073 81.6441 126.567 80.6688 126.21C79.6935 125.835 78.0617 125.141 77.0489 124.635C76.0548 124.128 74.6669 123.359 73.9729 122.947C73.2602 122.515 71.7785 121.465 70.6344 120.621C69.4902 119.777 67.2583 117.826 65.664 116.307C64.0698 114.788 61.9504 112.912 60.9751 112.106C59.9998 111.318 58.5555 110.23 57.7866 109.724C57.0176 109.199 55.7422 108.411 54.9732 107.998C54.2042 107.567 52.8913 106.967 52.066 106.667C51.2407 106.367 49.8528 105.991 48.9713 105.823C48.0897 105.654 46.8894 105.523 46.2892 105.523C45.7077 105.523 44.6011 105.635 43.8697 105.785C43.1194 105.935 42.1629 106.179 41 106.648L41.844 105.898C42.3129 105.485 43.1944 104.866 43.8134 104.491C44.4323 104.135 45.5764 103.591 46.3454 103.291C47.1144 102.991 48.4273 102.597 49.2526 102.428C50.2467 102.203 51.5971 102.09 53.2851 102.09C54.9357 102.09 56.3423 102.203 57.3177 102.409C58.1429 102.578 59.4933 102.934 60.3186 103.197C61.1439 103.478 63.3758 104.435 65.2889 105.354C67.202 106.254 69.4715 107.211 70.353 107.473C71.2346 107.717 72.7913 108.017 73.8229 108.13C75.1358 108.28 76.2049 108.298 77.3865 108.167C78.3055 108.055 79.656 107.792 80.3874 107.567C81.1189 107.361 82.2818 106.873 83.0133 106.498C83.8385 106.066 84.8138 105.316 85.6391 104.491C86.5581 103.572 87.1583 102.747 87.646 101.771C88.0399 101.002 88.49 99.727 88.6588 98.958C88.8651 97.9639 88.9214 97.0449 88.8651 95.8633C88.8089 94.9255 88.5838 93.5 88.3587 92.6748C88.1524 91.8495 87.5147 90.2365 86.9708 89.1111C86.4268 87.9858 85.3578 86.1102 84.6075 84.9848C83.8573 83.8595 81.5691 80.7272 79.5434 78.0451C77.5178 75.363 75.3421 72.3996 74.7232 71.4806C74.1042 70.5615 73.1664 68.986 72.6412 68.0107C72.1161 67.0354 71.4596 65.5537 71.197 64.7284C70.9157 63.8657 70.6531 62.5902 70.5968 61.7275C70.5218 60.6584 70.5781 59.8706 70.8032 59.0079C70.972 58.3327 71.4034 57.3386 71.7597 56.8134C72.1161 56.2695 72.7725 55.5568 73.2039 55.2379C73.6541 54.9191 74.3105 54.544 74.6669 54.3752Z" fill="#F01B53"/>
<path d="M60.4127 30.7801C60.9754 30.5925 62.0258 30.33 62.7572 30.1987C63.5825 30.0299 64.9704 29.9736 66.5084 30.0111C67.8401 30.0486 69.6219 30.2362 70.4472 30.405C71.2724 30.5738 72.8292 31.0052 73.917 31.3428C75.0049 31.6991 76.9367 32.5056 78.2309 33.1621C79.525 33.8186 81.4194 34.9064 82.451 35.6004C83.4825 36.2943 85.0018 37.4009 85.827 38.0574C86.6523 38.7326 88.7154 40.5895 90.4222 42.2212C92.129 43.853 94.4923 45.8974 95.6739 46.7977C96.8555 47.6979 98.506 48.8045 99.3313 49.2734C100.157 49.7423 101.544 50.4176 102.426 50.7927C103.308 51.1678 104.564 51.6367 105.239 51.8242C106.158 52.0681 107.115 52.1619 109.084 52.1431C111.279 52.1431 111.898 52.0868 112.836 51.7492C113.454 51.5242 113.98 51.3741 113.998 51.4304C114.036 51.4679 113.53 51.8993 112.873 52.3682C112.235 52.8558 111.035 53.5686 110.21 53.9624C109.384 54.3563 108.072 54.844 107.303 55.0503C106.534 55.2753 105.014 55.5379 103.926 55.6505C102.464 55.8005 101.451 55.8005 99.9877 55.6317C98.8999 55.5192 97.2681 55.2191 96.3303 54.9752C95.3925 54.7314 94.0984 54.3 93.4232 54.0187C92.748 53.7561 91.1349 52.9871 89.822 52.3307C88.4904 51.6742 86.8023 50.924 86.0521 50.6801C85.3206 50.4176 84.0265 50.0799 83.2012 49.9111C82.3009 49.7236 80.8004 49.611 79.45 49.611C77.7995 49.611 76.7867 49.7236 75.6988 50.0049C74.8736 50.2112 73.4856 50.7364 72.6041 51.1678C71.4225 51.7492 70.6722 52.2931 69.6782 53.2685C68.7779 54.1687 68.1402 55.0315 67.69 55.913C67.3337 56.6445 66.8835 57.9012 66.696 58.7264C66.4334 59.8705 66.3771 60.6583 66.4709 62.1025C66.5272 63.1341 66.7522 64.6158 66.9773 65.3848C67.2024 66.1538 67.7838 67.6355 68.2715 68.6671C68.7779 69.6986 69.7907 71.4617 70.5409 72.6058C71.2912 73.7499 72.3978 75.3067 72.9792 76.0757C73.5606 76.8447 75.4738 79.3767 77.2181 81.7024C78.9624 84.0282 80.8379 86.6352 81.3631 87.5168C81.8883 88.3983 82.6573 89.7862 83.0699 90.6115C83.4825 91.4368 83.9889 92.6559 84.1953 93.3311C84.4016 94.0063 84.6266 95.1317 84.7017 95.8632C84.7954 96.6884 84.7579 97.5887 84.6079 98.3014C84.4766 98.9204 84.1202 99.9332 83.7826 100.533C83.4638 101.152 82.8636 101.921 82.451 102.278C82.0383 102.634 81.2693 103.122 80.7629 103.347C80.2378 103.591 79.375 103.891 78.8311 104.003C78.3059 104.116 77.0868 104.21 76.1677 104.21C75.2487 104.21 73.8607 104.097 73.1105 103.947C72.379 103.797 71.2162 103.497 70.5409 103.272C69.8657 103.047 68.6091 102.522 67.7276 102.09C66.846 101.659 65.4956 100.852 64.7266 100.308C63.9576 99.7456 62.8323 98.8266 62.2321 98.2452C61.6319 97.645 60.7691 96.6697 60.319 96.0507C59.8876 95.4318 59.3061 94.4752 59.0248 93.9313C58.7622 93.4061 58.4059 92.3933 58.2371 91.6806C58.0495 90.8741 57.9932 90.0863 58.0683 89.4861C58.1245 88.961 58.3496 88.1732 58.5559 87.7043C58.781 87.2354 59.1186 86.654 59.3249 86.3914C59.5312 86.1288 60.0939 85.6412 60.5628 85.3036C61.0504 84.966 61.9507 84.5346 62.5697 84.347C63.1886 84.1407 64.2765 83.9344 65.0079 83.8594C65.7769 83.7843 67.0148 83.8219 68.0089 83.9531C68.9279 84.0657 70.3721 84.3845 71.1974 84.6471C72.0227 84.9097 73.223 85.3598 75.0424 86.2039L72.2665 83.0529C70.7473 81.3273 68.1965 78.2701 66.5834 76.2632C64.9704 74.2563 62.6822 71.3304 61.5006 69.7924C60.3002 68.2357 58.856 66.3038 58.2558 65.4786C57.6744 64.6533 56.6053 63.0028 55.9113 61.8212C55.1986 60.6395 54.2045 58.7827 53.6981 57.6949C53.173 56.607 52.4227 54.7127 52.0101 53.4748C51.5975 52.2369 51.1098 50.4551 50.9222 49.536C50.6784 48.3356 50.5846 47.0227 50.6034 45.0346C50.6034 42.7651 50.6784 41.9399 51.016 40.7207C51.2411 39.8955 51.7663 38.5075 52.1977 37.626C52.8354 36.3506 53.323 35.6942 54.6922 34.325C56.0051 33.0121 56.7178 32.4494 57.8807 31.8679C58.706 31.4553 59.8501 30.9677 60.4127 30.7801Z" fill="#56015E"/>
</svg>
