<svg width="299" height="159" viewBox="0 0 299 159" fill="none" xmlns="http://www.w3.org/2000/svg">
<path d="M102.475 119.75C97.375 119.75 92.9 118.625 89.05 116.375C85.25 114.125 82.3 110.975 80.2 106.925C78.1 102.825 77.05 98.025 77.05 92.525C77.05 88.375 77.65 84.65 78.85 81.35C80.05 78 81.75 75.15 83.95 72.8C86.2 70.4 88.875 68.575 91.975 67.325C95.125 66.025 98.625 65.375 102.475 65.375C107.625 65.375 112.1 66.5 115.9 68.75C119.7 70.95 122.65 74.075 124.75 78.125C126.85 82.175 127.9 86.95 127.9 92.45C127.9 96.6 127.3 100.35 126.1 103.7C124.9 107.05 123.175 109.925 120.925 112.325C118.725 114.725 116.05 116.575 112.9 117.875C109.8 119.125 106.325 119.75 102.475 119.75ZM102.475 111.5C105.725 111.5 108.475 110.75 110.725 109.25C113.025 107.75 114.775 105.575 115.975 102.725C117.225 99.875 117.85 96.475 117.85 92.525C117.85 86.525 116.5 81.875 113.8 78.575C111.15 75.275 107.375 73.625 102.475 73.625C99.275 73.625 96.525 74.375 94.225 75.875C91.925 77.325 90.15 79.475 88.9 82.325C87.7 85.125 87.1 88.525 87.1 92.525C87.1 98.475 88.45 103.125 91.15 106.475C93.85 109.825 97.625 111.5 102.475 111.5ZM142.162 119.6C140.712 119.6 139.587 119.2 138.787 118.4C138.037 117.6 137.662 116.45 137.662 114.95V70.325C137.662 68.775 138.037 67.6 138.787 66.8C139.587 65.95 140.612 65.525 141.862 65.525C143.012 65.525 143.862 65.75 144.412 66.2C145.012 66.6 145.712 67.3 146.512 68.3L175.237 105.575H173.287V70.1C173.287 68.65 173.662 67.525 174.412 66.725C175.212 65.925 176.337 65.525 177.787 65.525C179.237 65.525 180.337 65.925 181.087 66.725C181.837 67.525 182.212 68.65 182.212 70.1V115.1C182.212 116.5 181.862 117.6 181.162 118.4C180.462 119.2 179.512 119.6 178.312 119.6C177.162 119.6 176.237 119.375 175.537 118.925C174.887 118.475 174.162 117.75 173.362 116.75L144.712 79.475H146.587V114.95C146.587 116.45 146.212 117.6 145.462 118.4C144.712 119.2 143.612 119.6 142.162 119.6ZM215.74 119.75C212.09 119.75 208.865 119.275 206.065 118.325C203.315 117.375 200.99 115.975 199.09 114.125C197.19 112.225 195.765 109.875 194.815 107.075C193.865 104.275 193.39 101.025 193.39 97.325V70.4C193.39 68.75 193.79 67.525 194.59 66.725C195.44 65.925 196.64 65.525 198.19 65.525C199.74 65.525 200.915 65.925 201.715 66.725C202.565 67.525 202.99 68.75 202.99 70.4V97.25C202.99 102 204.065 105.575 206.215 107.975C208.415 110.325 211.59 111.5 215.74 111.5C219.89 111.5 223.04 110.325 225.19 107.975C227.34 105.575 228.415 102 228.415 97.25V70.4C228.415 68.75 228.815 67.525 229.615 66.725C230.465 65.925 231.665 65.525 233.215 65.525C234.715 65.525 235.865 65.925 236.665 66.725C237.515 67.525 237.94 68.75 237.94 70.4V97.325C237.94 102.225 237.09 106.35 235.39 109.7C233.74 113.05 231.265 115.575 227.965 117.275C224.665 118.925 220.59 119.75 215.74 119.75ZM250.35 119.6C249.1 119.6 248.075 119.275 247.275 118.625C246.475 117.925 246 117.075 245.85 116.075C245.75 115.025 246.1 113.975 246.9 112.925L264.075 90.05V94.175L247.725 72.275C246.925 71.175 246.575 70.125 246.675 69.125C246.775 68.075 247.225 67.225 248.025 66.575C248.825 65.875 249.825 65.525 251.025 65.525C252.025 65.525 252.9 65.775 253.65 66.275C254.45 66.725 255.25 67.5 256.05 68.6L269.55 87.2H266.475L279.9 68.6C280.7 67.5 281.475 66.725 282.225 66.275C283.025 65.775 283.95 65.525 285 65.525C286.25 65.525 287.275 65.85 288.075 66.5C288.875 67.15 289.325 68 289.425 69.05C289.525 70.05 289.15 71.125 288.3 72.275L271.95 94.175V90.05L289.05 112.925C289.85 113.975 290.2 115.025 290.1 116.075C290 117.075 289.55 117.925 288.75 118.625C287.95 119.275 286.9 119.6 285.6 119.6C284.65 119.6 283.775 119.35 282.975 118.85C282.225 118.35 281.425 117.55 280.575 116.45L266.325 96.95H269.625L255.45 116.45C254.65 117.55 253.85 118.35 253.05 118.85C252.25 119.35 251.35 119.6 250.35 119.6Z" fill="white"/>
<path d="M33.6669 54.3752C34.0232 54.2251 34.7922 54 35.3549 53.85C35.9176 53.7187 37.1555 53.5874 38.0745 53.5874C39.0311 53.5874 40.494 53.7187 41.4506 53.925C42.3884 54.1126 43.8514 54.544 44.7329 54.9003C45.6144 55.2567 46.9836 55.9131 47.8088 56.382C48.6154 56.8509 49.9658 57.77 50.791 58.4452C51.6351 59.1204 52.7604 60.2082 53.3231 60.8835C53.867 61.5587 54.5985 62.609 54.9549 63.2279C55.2925 63.8469 55.7051 64.8222 55.8739 65.3849C56.0427 65.9476 56.174 66.9604 56.174 67.6356C56.174 68.3108 56.0802 69.1736 55.9864 69.5675C55.8739 69.9426 55.5175 70.6178 55.1987 71.0492C54.8611 71.4806 54.2046 72.1183 53.7357 72.4746C53.2668 72.8122 52.3478 73.2624 51.6726 73.4687C50.9974 73.675 49.7782 73.8813 48.953 73.9376C47.9401 74.0126 46.8711 73.9563 45.6707 73.75C44.6954 73.5625 43.2699 73.2249 42.5384 72.9623C41.7882 72.7184 40.7566 72.3058 40.2315 72.0432C39.725 71.7807 39.2937 71.6306 39.2937 71.7244C39.3124 71.7994 39.8376 72.3996 40.494 73.0748C41.1505 73.75 42.4822 75.213 43.4575 76.3571C44.4328 77.5012 46.1021 79.5268 47.1899 80.8585C48.2778 82.1902 50.5097 85.0223 52.1602 87.1418C53.792 89.2612 55.9114 92.1308 56.8492 93.5188C57.787 94.9067 59.0249 96.9323 59.5876 98.0202C60.169 99.108 61.0505 100.965 61.5382 102.146C62.0071 103.328 62.6448 105.241 62.9261 106.367C63.2262 107.492 63.5638 109.311 63.6764 110.399C63.8077 111.543 63.8639 113.006 63.7889 113.869C63.7139 114.694 63.5263 115.951 63.3575 116.682C63.1887 117.414 62.8511 118.483 62.6073 119.083C62.3822 119.665 61.8383 120.677 61.4444 121.334C61.0505 121.972 60.0565 123.116 59.25 123.885C58.1621 124.879 57.3181 125.479 56.0802 126.079C55.1424 126.529 53.717 127.092 52.8917 127.317C51.6726 127.636 50.8286 127.711 48.3903 127.73C45.8957 127.748 45.0517 127.673 43.42 127.317C42.3321 127.073 40.6441 126.567 39.6688 126.21C38.6935 125.835 37.0617 125.141 36.0489 124.635C35.0548 124.128 33.6669 123.359 32.9729 122.947C32.2602 122.515 30.7785 121.465 29.6344 120.621C28.4902 119.777 26.2583 117.826 24.664 116.307C23.0698 114.788 20.9504 112.912 19.9751 112.106C18.9998 111.318 17.5555 110.23 16.7866 109.724C16.0176 109.199 14.7422 108.411 13.9732 107.998C13.2042 107.567 11.8913 106.967 11.066 106.667C10.2407 106.367 8.8528 105.991 7.97127 105.823C7.08974 105.654 5.88936 105.523 5.28917 105.523C4.70774 105.523 3.60114 105.635 2.86966 105.785C2.11942 105.935 1.16287 106.179 0 106.648L0.844017 105.898C1.31291 105.485 2.19444 104.866 2.81339 104.491C3.43233 104.135 4.57645 103.591 5.34544 103.291C6.11443 102.991 7.42735 102.597 8.25261 102.428C9.24667 102.203 10.5971 102.09 12.2851 102.09C13.9357 102.09 15.3423 102.203 16.3177 102.409C17.1429 102.578 18.4933 102.934 19.3186 103.197C20.1439 103.478 22.3758 104.435 24.2889 105.354C26.202 106.254 28.4715 107.211 29.353 107.473C30.2346 107.717 31.7913 108.017 32.8229 108.13C34.1358 108.28 35.2049 108.298 36.3865 108.167C37.3055 108.055 38.656 107.792 39.3874 107.567C40.1189 107.361 41.2818 106.873 42.0133 106.498C42.8385 106.066 43.8138 105.316 44.6391 104.491C45.5581 103.572 46.1583 102.747 46.646 101.771C47.0399 101.002 47.49 99.727 47.6588 98.958C47.8651 97.9639 47.9214 97.0449 47.8651 95.8633C47.8089 94.9255 47.5838 93.5 47.3587 92.6748C47.1524 91.8495 46.5147 90.2365 45.9708 89.1111C45.4268 87.9858 44.3578 86.1102 43.6075 84.9848C42.8573 83.8595 40.5691 80.7272 38.5434 78.0451C36.5178 75.363 34.3421 72.3996 33.7232 71.4806C33.1042 70.5615 32.1664 68.986 31.6412 68.0107C31.1161 67.0354 30.4596 65.5537 30.197 64.7284C29.9157 63.8657 29.6531 62.5902 29.5968 61.7275C29.5218 60.6584 29.5781 59.8706 29.8032 59.0079C29.972 58.3327 30.4034 57.3386 30.7597 56.8134C31.1161 56.2695 31.7725 55.5568 32.2039 55.2379C32.6541 54.9191 33.3105 54.544 33.6669 54.3752Z" fill="white"/>
<path d="M19.4127 30.7801C19.9754 30.5925 21.0258 30.33 21.7572 30.1987C22.5825 30.0299 23.9704 29.9736 25.5084 30.0111C26.8401 30.0486 28.6219 30.2362 29.4472 30.405C30.2724 30.5738 31.8292 31.0052 32.917 31.3428C34.0049 31.6991 35.9367 32.5056 37.2309 33.1621C38.525 33.8186 40.4194 34.9064 41.451 35.6004C42.4825 36.2943 44.0018 37.4009 44.827 38.0574C45.6523 38.7326 47.7154 40.5895 49.4222 42.2212C51.129 43.853 53.4923 45.8974 54.6739 46.7977C55.8555 47.6979 57.506 48.8045 58.3313 49.2734C59.1565 49.7423 60.5445 50.4176 61.426 50.7927C62.3075 51.1678 63.5642 51.6367 64.2394 51.8242C65.1584 52.0681 66.115 52.1619 68.0844 52.1431C70.2788 52.1431 70.8978 52.0868 71.8355 51.7492C72.4545 51.5242 72.9797 51.3741 72.9984 51.4304C73.0359 51.4679 72.5295 51.8993 71.8731 52.3682C71.2354 52.8558 70.035 53.5686 69.2097 53.9624C68.3845 54.3563 67.0715 54.844 66.3026 55.0503C65.5336 55.2753 64.0143 55.5379 62.9265 55.6505C61.4635 55.8005 60.4507 55.8005 58.9877 55.6317C57.8999 55.5192 56.2681 55.2191 55.3303 54.9752C54.3925 54.7314 53.0984 54.3 52.4232 54.0187C51.748 53.7561 50.1349 52.9871 48.822 52.3307C47.4904 51.6742 45.8023 50.924 45.0521 50.6801C44.3206 50.4176 43.0265 50.0799 42.2012 49.9111C41.3009 49.7236 39.8004 49.611 38.45 49.611C36.7995 49.611 35.7867 49.7236 34.6988 50.0049C33.8736 50.2112 32.4856 50.7364 31.6041 51.1678C30.4225 51.7492 29.6722 52.2931 28.6782 53.2685C27.7779 54.1687 27.1402 55.0315 26.69 55.913C26.3337 56.6445 25.8835 57.9012 25.696 58.7264C25.4334 59.8705 25.3771 60.6583 25.4709 62.1025C25.5272 63.1341 25.7522 64.6158 25.9773 65.3848C26.2024 66.1538 26.7838 67.6355 27.2715 68.6671C27.7779 69.6986 28.7907 71.4617 29.5409 72.6058C30.2912 73.7499 31.3978 75.3067 31.9792 76.0757C32.5606 76.8447 34.4738 79.3767 36.2181 81.7024C37.9624 84.0282 39.8379 86.6352 40.3631 87.5168C40.8883 88.3983 41.6573 89.7862 42.0699 90.6115C42.4825 91.4368 42.9889 92.6559 43.1953 93.3311C43.4016 94.0063 43.6266 95.1317 43.7017 95.8632C43.7954 96.6884 43.7579 97.5887 43.6079 98.3014C43.4766 98.9204 43.1202 99.9332 42.7826 100.533C42.4638 101.152 41.8636 101.921 41.451 102.278C41.0383 102.634 40.2693 103.122 39.7629 103.347C39.2378 103.591 38.375 103.891 37.8311 104.003C37.3059 104.116 36.0868 104.21 35.1677 104.21C34.2487 104.21 32.8607 104.097 32.1105 103.947C31.379 103.797 30.2162 103.497 29.5409 103.272C28.8657 103.047 27.6091 102.522 26.7276 102.09C25.846 101.659 24.4956 100.852 23.7266 100.308C22.9576 99.7456 21.8323 98.8266 21.2321 98.2452C20.6319 97.645 19.7691 96.6697 19.319 96.0507C18.8876 95.4318 18.3061 94.4752 18.0248 93.9313C17.7622 93.4061 17.4059 92.3933 17.2371 91.6806C17.0495 90.8741 16.9932 90.0863 17.0683 89.4861C17.1245 88.961 17.3496 88.1732 17.5559 87.7043C17.781 87.2354 18.1186 86.654 18.3249 86.3914C18.5312 86.1288 19.0939 85.6412 19.5628 85.3036C20.0504 84.966 20.9507 84.5346 21.5697 84.347C22.1886 84.1407 23.2765 83.9344 24.0079 83.8594C24.7769 83.7843 26.0148 83.8219 27.0089 83.9531C27.9279 84.0657 29.3721 84.3845 30.1974 84.6471C31.0227 84.9097 32.223 85.3598 34.0424 86.2039L31.2665 83.0529C29.7473 81.3273 27.1965 78.2701 25.5834 76.2632C23.9704 74.2563 21.6822 71.3304 20.5006 69.7924C19.3002 68.2357 17.856 66.3038 17.2558 65.4786C16.6744 64.6533 15.6053 63.0028 14.9113 61.8212C14.1986 60.6395 13.2045 58.7827 12.6981 57.6949C12.173 56.607 11.4227 54.7127 11.0101 53.4748C10.5975 52.2369 10.1098 50.4551 9.92225 49.536C9.67842 48.3356 9.58464 47.0227 9.6034 45.0346C9.6034 42.7651 9.67842 41.9399 10.016 40.7207C10.2411 39.8955 10.7663 38.5075 11.1977 37.626C11.8354 36.3506 12.323 35.6942 13.6922 34.325C15.0051 33.0121 15.7178 32.4494 16.8807 31.8679C17.706 31.4553 18.8501 30.9677 19.4127 30.7801Z" fill="white"/>
</svg>
