<svg width="276" height="132" viewBox="0 0 276 132" fill="none" xmlns="http://www.w3.org/2000/svg">
<rect width="276" height="132" fill="#FCFCFC"/>
<rect y="117" width="276" height="15" fill="#F01B53"/>
<path d="M41.234 71.0588C41.5042 71.0588 41.7745 71.0512 42.0448 71.0321C42.4694 69.5524 43.0485 68.1376 43.7744 66.8109C42.6106 67.2124 41.3666 67.3323 40.1465 67.1604C38.9264 66.9885 37.7656 66.5298 36.761 65.8228C35.7565 65.1158 34.9374 64.1809 34.3723 63.0962C33.8071 62.0116 33.5123 60.8088 33.5125 59.5882V40.4744C33.5125 38.4463 34.3261 36.5012 35.7741 35.0671C37.2222 33.633 39.1861 32.8274 41.234 32.8274C43.2819 32.8274 45.2458 33.633 46.6939 35.0671C48.1419 36.5012 48.9555 38.4463 48.9555 40.4744V59.5921C48.9555 59.9438 48.9323 60.2918 48.886 60.6321C50.0952 59.6331 51.4135 58.7713 52.8162 58.0626V40.4706C52.8162 37.4284 51.5959 34.5108 49.4238 32.3597C47.2518 30.2085 44.3058 29 41.234 29C38.1622 29 35.2162 30.2085 33.0442 32.3597C30.8721 34.5108 29.6518 37.4284 29.6518 40.4706V59.5882C29.6518 62.6304 30.8721 65.548 33.0442 67.6992C35.2162 69.8503 38.1622 71.0588 41.234 71.0588ZM23.8607 59.5882C23.8607 64.1515 25.6911 68.5279 28.9492 71.7546C32.2074 74.9814 36.6263 76.7941 41.234 76.7941C41.234 79.9256 41.9251 82.8965 43.1644 85.5653V88.2647C43.1644 88.7717 42.961 89.258 42.599 89.6165C42.237 89.9751 41.746 90.1765 41.234 90.1765C40.722 90.1765 40.231 89.9751 39.869 89.6165C39.507 89.258 39.3036 88.7717 39.3036 88.2647V80.5335C34.0276 80.0565 29.1222 77.6435 25.5506 73.7681C21.979 69.8928 19.9993 64.8351 20 59.5882C20 59.0812 20.2034 58.5949 20.5654 58.2364C20.9274 57.8779 21.4184 57.6765 21.9304 57.6765C22.4423 57.6765 22.9333 57.8779 23.2953 58.2364C23.6573 58.5949 23.8607 59.0812 23.8607 59.5882ZM72.1198 76.7941C72.1198 79.3293 71.1029 81.7606 69.2929 83.5532C67.4828 85.3459 65.0278 86.3529 62.468 86.3529C59.9082 86.3529 57.4532 85.3459 55.6431 83.5532C53.8331 81.7606 52.8162 79.3293 52.8162 76.7941C52.8162 74.259 53.8331 71.8276 55.6431 70.035C57.4532 68.2424 59.9082 67.2353 62.468 67.2353C65.0278 67.2353 67.4828 68.2424 69.2929 70.035C71.1029 71.8276 72.1198 74.259 72.1198 76.7941ZM79.8413 76.7941C79.8413 81.3574 78.0109 85.7338 74.7528 88.9605C71.4946 92.1872 67.0757 94 62.468 94C57.8603 94 53.4414 92.1872 50.1832 88.9605C46.9251 85.7338 45.0947 81.3574 45.0947 76.7941C45.0947 72.2308 46.9251 67.8545 50.1832 64.6277C53.4414 61.401 57.8603 59.5882 62.468 59.5882C67.0757 59.5882 71.4946 61.401 74.7528 64.6277C78.0109 67.8545 79.8413 72.2308 79.8413 76.7941ZM48.9555 76.7941C48.9555 78.5515 49.305 80.2917 49.984 81.9153C50.6631 83.5389 51.6584 85.0142 52.9132 86.2569C54.1679 87.4995 55.6576 88.4853 57.297 89.1578C58.9364 89.8303 60.6935 90.1765 62.468 90.1765C64.2425 90.1765 65.9996 89.8303 67.639 89.1578C69.2784 88.4853 70.7681 87.4995 72.0228 86.2569C73.2776 85.0142 74.2729 83.5389 74.952 81.9153C75.631 80.2917 75.9805 78.5515 75.9805 76.7941C75.9805 73.2449 74.5569 69.841 72.0228 67.3314C69.4887 64.8217 66.0517 63.4118 62.468 63.4118C58.8842 63.4118 55.4473 64.8217 52.9132 67.3314C50.3791 69.841 48.9555 73.2449 48.9555 76.7941Z" fill="black"/>
</svg>
