<svg width="515" height="515" viewBox="0 0 515 515" fill="none" xmlns="http://www.w3.org/2000/svg">
<path d="M245.572 144.739C247.176 144.064 250.638 143.05 253.171 142.375C255.705 141.784 261.278 141.193 265.415 141.193C269.722 141.193 276.308 141.784 280.615 142.713C284.837 143.557 291.423 145.499 295.392 147.104C299.361 148.708 305.525 151.663 309.24 153.774C312.871 155.885 318.951 160.023 322.666 163.063C326.466 166.103 331.533 171 334.066 174.04C336.515 177.08 339.808 181.809 341.412 184.595C342.932 187.382 344.79 191.773 345.55 194.306C346.31 196.839 346.901 201.399 346.901 204.439C346.901 207.479 346.479 211.363 346.057 213.136C345.55 214.825 343.946 217.865 342.51 219.807C340.99 221.749 338.035 224.62 335.924 226.225C333.813 227.745 329.675 229.771 326.635 230.7C323.595 231.629 318.107 232.558 314.391 232.811C309.831 233.149 305.018 232.896 299.614 231.967C295.223 231.122 288.806 229.602 285.512 228.42C282.135 227.323 277.49 225.465 275.126 224.283C272.846 223.1 270.904 222.425 270.904 222.847C270.989 223.185 273.353 225.887 276.308 228.927C279.264 231.967 285.259 238.553 289.65 243.704C294.041 248.855 301.556 257.975 306.454 263.97C311.351 269.965 321.4 282.716 328.831 292.258C336.177 301.8 345.719 314.719 349.941 320.968C354.163 327.216 359.736 336.336 362.269 341.234C364.887 346.131 368.856 354.491 371.051 359.811C373.162 365.13 376.033 373.743 377.3 378.81C378.651 383.876 380.171 392.067 380.677 396.965C381.269 402.116 381.522 408.702 381.184 412.586C380.846 416.302 380.002 421.959 379.242 425.252C378.482 428.546 376.962 433.359 375.864 436.061C374.851 438.679 372.402 443.238 370.629 446.194C368.856 449.065 364.38 454.216 360.749 457.678C355.852 462.153 352.052 464.855 346.479 467.557C342.257 469.584 335.839 472.117 332.124 473.131C326.635 474.566 322.835 474.904 311.858 474.988C300.627 475.073 296.827 474.735 289.481 473.131C284.584 472.033 276.984 469.753 272.593 468.148C268.202 466.46 260.856 463.335 256.296 461.055C251.82 458.776 245.572 455.313 242.447 453.456C239.239 451.514 232.568 446.785 227.417 442.985C222.266 439.185 212.218 430.403 205.04 423.564C197.863 416.724 188.321 408.28 183.93 404.649C179.539 401.102 173.037 396.205 169.575 393.925C166.113 391.56 160.371 388.014 156.909 386.156C153.447 384.214 147.536 381.512 143.82 380.161C140.105 378.81 133.856 377.121 129.887 376.361C125.919 375.601 120.515 375.01 117.812 375.01C115.195 375.01 110.213 375.517 106.919 376.192C103.542 376.868 99.2353 377.965 94 380.076L97.7998 376.699C99.9109 374.841 103.88 372.055 106.666 370.366C109.453 368.761 114.604 366.313 118.066 364.962C121.528 363.61 127.439 361.837 131.154 361.077C135.629 360.064 141.709 359.557 149.309 359.557C156.74 359.557 163.073 360.064 167.464 360.993C171.179 361.753 177.259 363.357 180.974 364.539C184.69 365.806 194.738 370.112 203.351 374.25C211.964 378.303 222.182 382.61 226.15 383.792C230.119 384.89 237.128 386.241 241.772 386.747C247.683 387.423 252.496 387.507 257.816 386.916C261.953 386.41 268.033 385.227 271.326 384.214C274.619 383.285 279.855 381.09 283.148 379.401C286.863 377.459 291.254 374.081 294.97 370.366C299.107 366.228 301.81 362.513 304.005 358.122C305.778 354.66 307.805 348.918 308.565 345.456C309.494 340.98 309.747 336.843 309.494 331.523C309.24 327.301 308.227 320.883 307.214 317.168C306.285 313.452 303.414 306.191 300.965 301.124C298.516 296.058 293.703 287.613 290.326 282.547C286.948 277.481 276.646 263.379 267.526 251.304C258.407 239.229 248.612 225.887 245.825 221.749C243.039 217.612 238.816 210.519 236.452 206.128C234.088 201.737 231.132 195.066 229.95 191.351C228.684 187.466 227.501 181.724 227.248 177.84C226.91 173.027 227.164 169.48 228.177 165.596C228.937 162.556 230.879 158.081 232.483 155.716C234.088 153.268 237.043 150.059 238.985 148.623C241.012 147.188 243.967 145.499 245.572 144.739Z" fill="#F01B53"/>
<path d="M181.397 38.5121C183.93 37.6677 188.659 36.4855 191.952 35.8944C195.667 35.1344 201.916 34.8811 208.84 35.05C214.835 35.2189 222.857 36.0633 226.573 36.8233C230.288 37.5832 237.297 39.5254 242.194 41.0453C247.092 42.6497 255.789 46.2807 261.616 49.2361C267.442 52.1916 275.971 57.0891 280.615 60.2135C285.259 63.3378 292.099 68.3198 295.814 71.2752C299.53 74.3151 308.818 82.6748 316.503 90.0212C324.187 97.3675 334.826 106.572 340.146 110.625C345.466 114.678 352.897 119.66 356.612 121.771C360.327 123.882 366.576 126.922 370.545 128.611C374.514 130.3 380.171 132.411 383.211 133.255C387.349 134.353 391.655 134.775 400.521 134.69C410.401 134.69 413.188 134.437 417.41 132.917C420.196 131.904 422.561 131.228 422.645 131.482C422.814 131.651 420.534 133.593 417.578 135.704C414.707 137.899 409.303 141.108 405.588 142.881C401.872 144.655 395.962 146.85 392.499 147.779C389.037 148.792 382.198 149.974 377.3 150.481C370.714 151.157 366.154 151.157 359.567 150.397C354.67 149.89 347.324 148.539 343.101 147.441C338.879 146.343 333.053 144.401 330.013 143.135C326.973 141.952 319.711 138.49 313.8 135.535C307.805 132.579 300.205 129.202 296.828 128.104C293.535 126.922 287.708 125.402 283.993 124.642C279.94 123.798 273.184 123.291 267.104 123.291C259.674 123.291 255.114 123.798 250.216 125.064C246.501 125.993 240.252 128.357 236.283 130.3C230.964 132.917 227.586 135.366 223.111 139.757C219.058 143.81 216.187 147.694 214.16 151.663C212.556 154.956 210.529 160.614 209.685 164.329C208.502 169.48 208.249 173.027 208.671 179.529C208.925 184.173 209.938 190.844 210.951 194.306C211.964 197.768 214.582 204.439 216.778 209.083C219.058 213.727 223.617 221.665 226.995 226.816C230.373 231.967 235.355 238.975 237.972 242.437C240.59 245.899 249.203 257.299 257.056 267.77C264.909 278.24 273.353 289.978 275.717 293.946C278.082 297.915 281.544 304.164 283.402 307.879C285.259 311.595 287.539 317.083 288.468 320.123C289.397 323.163 290.41 328.229 290.748 331.523C291.17 335.238 291.001 339.291 290.326 342.5C289.735 345.287 288.13 349.846 286.61 352.549C285.175 355.335 282.473 358.797 280.615 360.402C278.757 362.006 275.295 364.201 273.015 365.215C270.651 366.312 266.767 367.663 264.318 368.17C261.954 368.677 256.465 369.099 252.327 369.099C248.19 369.099 241.941 368.592 238.563 367.917C235.27 367.241 230.035 365.89 226.995 364.877C223.955 363.864 218.298 361.499 214.329 359.557C210.36 357.615 204.28 353.984 200.818 351.535C197.356 349.002 192.29 344.864 189.588 342.247C186.885 339.545 183.001 335.154 180.975 332.367C179.032 329.581 176.415 325.274 175.148 322.825C173.966 320.461 172.362 315.901 171.602 312.692C170.757 309.061 170.504 305.515 170.842 302.813C171.095 300.448 172.108 296.902 173.037 294.791C174.05 292.68 175.57 290.062 176.499 288.88C177.428 287.698 179.961 285.502 182.072 283.982C184.268 282.462 188.321 280.52 191.108 279.676C193.894 278.747 198.792 277.818 202.085 277.48C205.547 277.143 211.12 277.312 215.595 277.903C219.733 278.409 226.235 279.845 229.95 281.027C233.666 282.209 239.07 284.236 247.261 288.036L234.764 273.849C227.924 266.081 216.44 252.317 209.178 243.282C201.916 234.247 191.614 221.074 186.294 214.15C180.89 207.141 174.388 198.444 171.686 194.728C169.068 191.013 164.255 183.582 161.131 178.262C157.922 172.942 153.447 164.583 151.167 159.685C148.803 154.787 145.425 146.259 143.567 140.686C141.709 135.113 139.514 127.091 138.67 122.953C137.572 117.549 137.15 111.638 137.234 102.687C137.234 92.47 137.572 88.7545 139.092 83.2659C140.105 79.5505 142.469 73.3018 144.412 69.3331C147.283 63.5911 149.478 60.6357 155.642 54.4715C161.553 48.5606 164.762 46.0274 169.997 43.4097C173.713 41.552 178.864 39.3565 181.397 38.5121Z" fill="#56015E"/>
</svg>
